<mxfile host="app.diagrams.net" modified="2024-01-28T11:37:02.565Z" agent="Mozilla/5.0 (Windows NT 10.0; Win64; x64) AppleWebKit/537.36 (KHTML, like Gecko) Chrome/121.0.0.0 Safari/537.36" version="23.0.2" etag="13niOeOqV_1WiQqtrKbT" type="github">
  <diagram name="Page-1" id="Hz8_kCS71GQtBM-XwS-b">
    <mxGraphModel>
      <root>
        <mxCell id="0" />
        <mxCell id="1" parent="0" />
      </root>
    </mxGraphModel>
  </diagram>
</mxfile>
